<svg width="31" height="31" viewBox="0 0 31 31" fill="none" xmlns="http://www.w3.org/2000/svg">
<path fill-rule="evenodd" clip-rule="evenodd" d="M6.74037 10.8587C6.04379 12.1948 5.65 13.7139 5.65 15.325C5.65 16.9361 6.04379 18.4552 6.74037 19.7913C7.72405 19.2335 9.00299 18.7794 10.4741 18.4621C10.3382 17.4675 10.2656 16.4137 10.2656 15.325C10.2656 14.2363 10.3382 13.1825 10.4741 12.1879C9.00299 11.8706 7.72405 11.4165 6.74037 10.8587ZM7.33195 9.87203C8.18567 10.3518 9.32424 10.759 10.6616 11.0518C10.8942 9.85713 11.2223 8.77236 11.6273 7.84668C11.9332 7.14743 12.2889 6.52552 12.6908 6.01293C10.4827 6.63632 8.5952 8.02391 7.33195 9.87203ZM15.325 4.5C9.34652 4.5 4.5 9.34652 4.5 15.325C4.5 21.3035 9.34652 26.15 15.325 26.15C21.3035 26.15 26.15 21.3035 26.15 15.325C26.15 9.34652 21.3035 4.5 15.325 4.5ZM15.325 5.65C14.8961 5.65 14.4421 5.84627 13.9791 6.29389C13.5134 6.74419 13.0676 7.42354 12.6809 8.30763C12.3136 9.147 12.0097 10.1476 11.7919 11.2639C12.9395 11.4454 14.1987 11.5469 15.5259 11.5469C16.7047 11.5469 17.8293 11.4669 18.8694 11.322C18.6508 10.1823 18.3427 9.16153 17.9691 8.30763C17.5824 7.42354 17.1366 6.74419 16.6709 6.29389C16.2079 5.84627 15.7539 5.65 15.325 5.65ZM20.0039 11.1321C19.7705 9.9057 19.4368 8.79305 19.0227 7.84668C18.7168 7.14743 18.3611 6.52552 17.9592 6.01293C20.2297 6.65393 22.1612 8.10294 23.4236 10.0298C22.5236 10.4847 21.3566 10.8657 20.0039 11.1321ZM19.0518 12.4576C17.9413 12.6134 16.7542 12.6969 15.5259 12.6969C14.1502 12.6969 12.8271 12.5922 11.606 12.3988C11.4826 13.3206 11.4156 14.3031 11.4156 15.325C11.4156 16.3469 11.4826 17.3294 11.606 18.2512C12.8271 18.0578 14.1502 17.9531 15.5259 17.9531C16.7542 17.9531 17.9413 18.0366 19.0518 18.1924C19.1702 17.2877 19.2344 16.3252 19.2344 15.325C19.2344 14.3248 19.1702 13.3623 19.0518 12.4576ZM20.1867 18.3819C20.3157 17.4109 20.3844 16.3845 20.3844 15.325C20.3844 14.2655 20.3157 13.2391 20.1867 12.2681C21.6655 11.9799 22.9682 11.5566 23.9961 11.0287C24.6387 12.3231 25 13.7819 25 15.325C25 16.8681 24.6387 18.3269 23.9961 19.6213C22.9682 19.0934 21.6655 18.6701 20.1867 18.3819ZM18.8694 19.328C17.8293 19.1831 16.7047 19.1031 15.5259 19.1031C14.1987 19.1031 12.9395 19.2046 11.7919 19.3861C12.0097 20.5024 12.3136 21.503 12.6809 22.3424C13.0676 23.2265 13.5134 23.9058 13.9791 24.3561C14.4421 24.8037 14.8961 25 15.325 25C15.7539 25 16.2079 24.8037 16.6709 24.3561C17.1366 23.9058 17.5824 23.2265 17.9691 22.3424C18.3427 21.4885 18.6508 20.4677 18.8694 19.328ZM17.9592 24.6371C18.3611 24.1245 18.7168 23.5026 19.0227 22.8033C19.4368 21.8569 19.7705 20.7443 20.0039 19.5179C21.3566 19.7843 22.5236 20.1653 23.4236 20.6202C22.1612 22.5471 20.2297 23.9961 17.9592 24.6371ZM12.6908 24.6371C12.2889 24.1245 11.9332 23.5026 11.6273 22.8033C11.2223 21.8776 10.8942 20.7929 10.6616 19.5982C9.32425 19.891 8.18567 20.2982 7.33195 20.778C8.5952 22.6261 10.4827 24.0137 12.6908 24.6371Z" fill="white"/>
</svg>
